# xmcd
#
# Track frame offsets:
#	150
#	14334
#	29670
#	44589
#	59295
#	75734
#	91467
#	106687
#	122552
#	136980
#	152055
#
# Disc length: 2226 seconds
#
# Revision: 0
# Processed by: cddbd v1.5.2PL0 Copyright (c) Steve Scherf et al.
# Submitted via: EasyCDDAExtractor 16.0.6.1
#
DISCID=8a08b00b
DTITLE=Χασκίλ Στέλλα - Στέλλα Χασκίλ-Αυθ. ηχογρ. 78 στροφές
DYEAR=2008
DGENRE=Ρεμπέτικη
TTITLE0=Χασκίλ Στέλλα-Μπίνης Τ.-Χιώτης Μ. - Το καφεδάκι [Μιχ. κ Μ. Χιώτη-Ν. Ρο
TTITLE0=ύτσος]
TTITLE1=Χασκίλ Στέλλα-Κυριαζής Γ. - Παραστρατημένη [Απ. Καλδάρας]
TTITLE2=Χασκίλ Στέλλα - Ψαράς θα γίνω στην στεριά [Απ. Καλδάρας]
TTITLE3=Χασκίλ Στέλλα-Τσιτσάνης Β. - Γιατί να φύγεις μακριά [Β. Τσιτσάνης]
TTITLE4=Χασκίλ Στέλλα - Μακπουλέ [Γ. Μητσάκης-Μ. Χιώτης]
TTITLE5=Χασκίλ Στέλλα-Παγιουμτζής Στρ.-Χιώτης Μ. - Πάλι κι απόψε σκεφτικός [Απ
TTITLE5=Καλδάρας]
TTITLE6=Χασκίλ Στέλλα - Αφού η μοίρα μ' έκανε φτωχή [Απ. Χατζηχρήστος-Κ. Μάνεσ
TTITLE6=ης]
TTITLE7=Χασκίλ Στέλλα-Μπίνης Τ. - Καίγομαι, καίγομαι [Γερ. Κλουβάτος]
TTITLE8=Χασκίλ Στέλλα-Περπινιάδης Στ. - Είσαι γυναίκα φίλου μου [Γ. Τατασσόπου
TTITLE8=λος-Ν. Ρούτσος]
TTITLE9=Χασκίλ Στέλλα - Ζηλεύει όποιος αγαπά [Σπ. Καλφόπουλος-Χ. Βασιλειάδης]
TTITLE10=Χασκίλ Στέλλα - Μπιρ αλάχ [Γ. Σταμούλης]
EXTD=
EXTT0=
EXTT1=
EXTT2=
EXTT3=
EXTT4=
EXTT5=
EXTT6=
EXTT7=
EXTT8=
EXTT9=
EXTT10=
PLAYORDER=
